<?xml version="1.0" encoding="UTF-8" standalone="no"?>
<!-- Created with Inkscape (http://www.inkscape.org/) -->

<svg
   xmlns:dc="http://purl.org/dc/elements/1.1/"
   xmlns:cc="http://creativecommons.org/ns#"
   xmlns:rdf="http://www.w3.org/1999/02/22-rdf-syntax-ns#"
   xmlns:svg="http://www.w3.org/2000/svg"
   xmlns="http://www.w3.org/2000/svg"
   xmlns:sodipodi="http://sodipodi.sourceforge.net/DTD/sodipodi-0.dtd"
   xmlns:inkscape="http://www.inkscape.org/namespaces/inkscape"
   width="210mm"
   height="297mm"
   id="svg3017"
   version="1.1"
   inkscape:version="0.48.4 r9939"
   sodipodi:docname="food3.svg"
   inkscape:export-filename="W:\var\www\fishtank\img\food3.png"
   inkscape:export-xdpi="14.318181"
   inkscape:export-ydpi="14.318181">
  <defs
     id="defs3019" />
  <sodipodi:namedview
     id="base"
     pagecolor="#ffffff"
     bordercolor="#666666"
     borderopacity="1.0"
     inkscape:pageopacity="0.0"
     inkscape:pageshadow="2"
     inkscape:zoom="0.35"
     inkscape:cx="350"
     inkscape:cy="520"
     inkscape:document-units="px"
     inkscape:current-layer="layer1"
     showgrid="false"
     inkscape:window-width="1920"
     inkscape:window-height="1018"
     inkscape:window-x="1272"
     inkscape:window-y="-8"
     inkscape:window-maximized="1" />
  <metadata
     id="metadata3022">
    <rdf:RDF>
      <cc:Work
         rdf:about="">
        <dc:format>image/svg+xml</dc:format>
        <dc:type
           rdf:resource="http://purl.org/dc/dcmitype/StillImage" />
        <dc:title></dc:title>
      </cc:Work>
    </rdf:RDF>
  </metadata>
  <g
     inkscape:label="Ebene 1"
     inkscape:groupmode="layer"
     id="layer1">
    <path
       sodipodi:type="arc"
       style="fill:#445a2b;fill-opacity:1;stroke:none"
       id="path3025"
       sodipodi:cx="95.714287"
       sodipodi:cy="165.21933"
       sodipodi:rx="44.285713"
       sodipodi:ry="44.285713"
       d="m 140,165.21933 a 44.285713,44.285713 0 1 1 -88.571426,0 44.285713,44.285713 0 1 1 88.571426,0 z"
       transform="translate(60,-22.857143)" />
    <path
       transform="translate(224.28571,-70.000005)"
       sodipodi:type="arc"
       style="fill:#445a2b;fill-opacity:1;stroke:none"
       id="path3025-1"
       sodipodi:cx="95.714287"
       sodipodi:cy="165.21933"
       sodipodi:rx="44.285713"
       sodipodi:ry="44.285713"
       d="m 140,165.21933 a 44.285713,44.285713 0 1 1 -88.571426,0 44.285713,44.285713 0 1 1 88.571426,0 z" />
    <path
       transform="translate(215.71428,81.428571)"
       sodipodi:type="arc"
       style="fill:#445a2b;fill-opacity:1;stroke:none"
       id="path3025-7"
       sodipodi:cx="95.714287"
       sodipodi:cy="165.21933"
       sodipodi:rx="44.285713"
       sodipodi:ry="44.285713"
       d="m 140,165.21933 a 44.285713,44.285713 0 1 1 -88.571426,0 44.285713,44.285713 0 1 1 88.571426,0 z" />
    <path
       transform="translate(321.42857,78.571424)"
       sodipodi:type="arc"
       style="fill:#445a2b;fill-opacity:1;stroke:none"
       id="path3025-4"
       sodipodi:cx="95.714287"
       sodipodi:cy="165.21933"
       sodipodi:rx="44.285713"
       sodipodi:ry="44.285713"
       d="m 140,165.21933 a 44.285713,44.285713 0 1 1 -88.571426,0 44.285713,44.285713 0 1 1 88.571426,0 z" />
    <path
       transform="translate(338.57143,189.99999)"
       sodipodi:type="arc"
       style="fill:#445a2b;fill-opacity:1;stroke:none"
       id="path3025-0"
       sodipodi:cx="95.714287"
       sodipodi:cy="165.21933"
       sodipodi:rx="44.285713"
       sodipodi:ry="44.285713"
       d="m 140,165.21933 a 44.285713,44.285713 0 1 1 -88.571426,0 44.285713,44.285713 0 1 1 88.571426,0 z" />
    <path
       transform="translate(18.571431,209.99999)"
       sodipodi:type="arc"
       style="fill:#445a2b;fill-opacity:1;stroke:none"
       id="path3025-9"
       sodipodi:cx="95.714287"
       sodipodi:cy="165.21933"
       sodipodi:rx="44.285713"
       sodipodi:ry="44.285713"
       d="m 140,165.21933 a 44.285713,44.285713 0 1 1 -88.571426,0 44.285713,44.285713 0 1 1 88.571426,0 z" />
    <path
       transform="translate(558.57143,184.28571)"
       sodipodi:type="arc"
       style="fill:#445a2b;fill-opacity:1;stroke:none"
       id="path3025-48"
       sodipodi:cx="95.714287"
       sodipodi:cy="165.21933"
       sodipodi:rx="44.285713"
       sodipodi:ry="44.285713"
       d="m 140,165.21933 a 44.285713,44.285713 0 1 1 -88.571426,0 44.285713,44.285713 0 1 1 88.571426,0 z" />
    <path
       transform="translate(441.42857,-7.1428567)"
       sodipodi:type="arc"
       style="fill:#445a2b;fill-opacity:1;stroke:none"
       id="path3025-8"
       sodipodi:cx="95.714287"
       sodipodi:cy="165.21933"
       sodipodi:rx="44.285713"
       sodipodi:ry="44.285713"
       d="m 140,165.21933 a 44.285713,44.285713 0 1 1 -88.571426,0 44.285713,44.285713 0 1 1 88.571426,0 z" />
    <path
       transform="translate(221.42858,312.85713)"
       sodipodi:type="arc"
       style="fill:#445a2b;fill-opacity:1;stroke:none"
       id="path3025-2"
       sodipodi:cx="95.714287"
       sodipodi:cy="165.21933"
       sodipodi:rx="44.285713"
       sodipodi:ry="44.285713"
       d="m 140,165.21933 a 44.285713,44.285713 0 1 1 -88.571426,0 44.285713,44.285713 0 1 1 88.571426,0 z" />
    <path
       transform="translate(495.71428,318.57143)"
       sodipodi:type="arc"
       style="fill:#445a2b;fill-opacity:1;stroke:none"
       id="path3025-48-4"
       sodipodi:cx="95.714287"
       sodipodi:cy="165.21933"
       sodipodi:rx="44.285713"
       sodipodi:ry="44.285713"
       d="m 140,165.21933 a 44.285713,44.285713 0 1 1 -88.571426,0 44.285713,44.285713 0 1 1 88.571426,0 z" />
    <path
       transform="translate(835.71428,212.85714)"
       sodipodi:type="arc"
       style="fill:#445a2b;fill-opacity:1;stroke:none"
       id="path3025-48-5"
       sodipodi:cx="95.714287"
       sodipodi:cy="165.21933"
       sodipodi:rx="44.285713"
       sodipodi:ry="44.285713"
       d="m 140,165.21933 a 44.285713,44.285713 0 1 1 -88.571426,0 44.285713,44.285713 0 1 1 88.571426,0 z" />
    <path
       transform="translate(847.14286,35.714283)"
       sodipodi:type="arc"
       style="fill:#445a2b;fill-opacity:1;stroke:none"
       id="path3025-48-51"
       sodipodi:cx="95.714287"
       sodipodi:cy="165.21933"
       sodipodi:rx="44.285713"
       sodipodi:ry="44.285713"
       d="m 140,165.21933 a 44.285713,44.285713 0 1 1 -88.571426,0 44.285713,44.285713 0 1 1 88.571426,0 z" />
    <path
       transform="translate(690,-155.71429)"
       sodipodi:type="arc"
       style="fill:#445a2b;fill-opacity:1;stroke:none"
       id="path3025-48-7"
       sodipodi:cx="95.714287"
       sodipodi:cy="165.21933"
       sodipodi:rx="44.285713"
       sodipodi:ry="44.285713"
       d="m 140,165.21933 a 44.285713,44.285713 0 1 1 -88.571426,0 44.285713,44.285713 0 1 1 88.571426,0 z" />
    <path
       transform="translate(707.14285,-7.1428571)"
       sodipodi:type="arc"
       style="fill:#445a2b;fill-opacity:1;stroke:none"
       id="path3025-48-1"
       sodipodi:cx="95.714287"
       sodipodi:cy="165.21933"
       sodipodi:rx="44.285713"
       sodipodi:ry="44.285713"
       d="m 140,165.21933 a 44.285713,44.285713 0 1 1 -88.571426,0 44.285713,44.285713 0 1 1 88.571426,0 z" />
    <path
       transform="translate(444.28571,-244.28572)"
       sodipodi:type="arc"
       style="fill:#445a2b;fill-opacity:1;stroke:none"
       id="path3025-48-15"
       sodipodi:cx="95.714287"
       sodipodi:cy="165.21933"
       sodipodi:rx="44.285713"
       sodipodi:ry="44.285713"
       d="m 140,165.21933 a 44.285713,44.285713 0 1 1 -88.571426,0 44.285713,44.285713 0 1 1 88.571426,0 z" />
    <path
       transform="translate(87.142859,-350)"
       sodipodi:type="arc"
       style="fill:#445a2b;fill-opacity:1;stroke:none"
       id="path3025-48-2"
       sodipodi:cx="95.714287"
       sodipodi:cy="165.21933"
       sodipodi:rx="44.285713"
       sodipodi:ry="44.285713"
       d="m 140,165.21933 a 44.285713,44.285713 0 1 1 -88.571426,0 44.285713,44.285713 0 1 1 88.571426,0 z" />
    <path
       transform="translate(264.28571,-370)"
       sodipodi:type="arc"
       style="fill:#445a2b;fill-opacity:1;stroke:none"
       id="path3025-48-76"
       sodipodi:cx="95.714287"
       sodipodi:cy="165.21933"
       sodipodi:rx="44.285713"
       sodipodi:ry="44.285713"
       d="m 140,165.21933 a 44.285713,44.285713 0 1 1 -88.571426,0 44.285713,44.285713 0 1 1 88.571426,0 z" />
    <path
       transform="translate(235.71428,-244.28572)"
       sodipodi:type="arc"
       style="fill:#445a2b;fill-opacity:1;stroke:none"
       id="path3025-48-14"
       sodipodi:cx="95.714287"
       sodipodi:cy="165.21933"
       sodipodi:rx="44.285713"
       sodipodi:ry="44.285713"
       d="m 140,165.21933 a 44.285713,44.285713 0 1 1 -88.571426,0 44.285713,44.285713 0 1 1 88.571426,0 z" />
  </g>
</svg>
