<?xml version="1.0" encoding="UTF-8" standalone="no"?>
<!-- Created with Inkscape (http://www.inkscape.org/) -->

<svg
   xmlns:dc="http://purl.org/dc/elements/1.1/"
   xmlns:cc="http://creativecommons.org/ns#"
   xmlns:rdf="http://www.w3.org/1999/02/22-rdf-syntax-ns#"
   xmlns:svg="http://www.w3.org/2000/svg"
   xmlns="http://www.w3.org/2000/svg"
   xmlns:sodipodi="http://sodipodi.sourceforge.net/DTD/sodipodi-0.dtd"
   xmlns:inkscape="http://www.inkscape.org/namespaces/inkscape"
   width="210mm"
   height="297mm"
   id="svg2"
   version="1.1"
   inkscape:version="0.48.4 r9939"
   sodipodi:docname="Neues Dokument 1">
  <defs
     id="defs4" />
  <sodipodi:namedview
     id="base"
     pagecolor="#ffffff"
     bordercolor="#666666"
     borderopacity="1.0"
     inkscape:pageopacity="0.0"
     inkscape:pageshadow="2"
     inkscape:zoom="0.35"
     inkscape:cx="654.60012"
     inkscape:cy="384.23301"
     inkscape:document-units="px"
     inkscape:current-layer="layer1"
     showgrid="false"
     inkscape:window-width="1920"
     inkscape:window-height="1018"
     inkscape:window-x="1272"
     inkscape:window-y="-8"
     inkscape:window-maximized="1" />
  <metadata
     id="metadata7">
    <rdf:RDF>
      <cc:Work
         rdf:about="">
        <dc:format>image/svg+xml</dc:format>
        <dc:type
           rdf:resource="http://purl.org/dc/dcmitype/StillImage" />
        <dc:title></dc:title>
      </cc:Work>
    </rdf:RDF>
  </metadata>
  <g
     inkscape:label="Ebene 1"
     inkscape:groupmode="layer"
     id="layer1">
    <path
       style="fill:#2d2213;fill-opacity:1;stroke:none"
       d="m 294.28572,307.34116 c 90.02846,-17.01104 180.84337,6.7964 245.71428,31.42857 116.89377,50.89612 53.4182,139.87714 -14.28571,91.42857 -56.08715,-36.32675 -132.54791,-54.22861 -242.85714,-42.85714 -79.49957,11.87654 -73.04404,-61.97881 11.42857,-80 z"
       id="path2985"
       inkscape:connector-curvature="0"
       sodipodi:nodetypes="ccccc" />
    <path
       style="fill:#2d2213;fill-opacity:1;stroke:none"
       d="m 655.43305,554.18868 c -84.56386,35.26262 -178.3391,30.75192 -246.90182,20.06868 -124.89266,-25.62018 -81.19218,-125.80519 -4.93208,-92.40637 62.3875,23.9416 140.89756,25.64307 246.47007,-8.29631 75.3245,-28.06159 84.28304,45.5321 5.36383,80.634 z"
       id="path2985-1"
       inkscape:connector-curvature="0"
       sodipodi:nodetypes="ccccc" />
    <path
       style="fill:#2d2213;fill-opacity:1;stroke:none"
       d="M 621.97187,-0.28575429 C 651.10974,86.578989 639.91833,179.79323 624.3694,247.41875 c -34.46774,122.74585 -131.27866,72.00716 -92.52274,-1.67502 28.3328,-60.51986 35.63275,-138.70833 9.31401,-246.43372429 -22.61456,-77.13503971 51.43081,-80.81876971 80.8112,0.40424 z"
       id="path2985-1-7"
       inkscape:connector-curvature="0"
       sodipodi:nodetypes="ccccc" />
    <path
       style="fill:#2d2213;fill-opacity:1;stroke:none"
       d="M 264.43622,703.2487 C 200.84817,637.28615 170.96485,548.28542 155.99615,480.52912 c -21.52827,-125.66266 87.68854,-121.36654 84.29322,-38.18267 0.37261,66.82261 27.32441,140.58117 97.31597,226.5964 53.52123,59.97258 -11.78252,95.06826 -73.16912,34.30585 z"
       id="path2985-1-4"
       inkscape:connector-curvature="0"
       sodipodi:nodetypes="ccccc" />
    <path
       style="fill:#2d2213;fill-opacity:1;stroke:none"
       d="m 555.69696,693.77461 c 52.687,-74.95718 134.39345,-121.19784 198.07431,-148.76099 119.28787,-44.99968 135.81003,63.04561 53.49504,75.50856 -65.53593,13.05536 -132.83425,53.52338 -203.99303,138.57551 -48.7177,63.93605 -95.57586,6.4852 -47.57632,-65.32308 z"
       id="path2985-1-0"
       inkscape:connector-curvature="0"
       sodipodi:nodetypes="ccccc" />
    <path
       style="fill:#2d2213;fill-opacity:1;stroke:none"
       d="m 789.742,181.48987 c 79.46499,45.60497 132.99019,122.736 166.26638,183.62667 55.72932,114.66829 -50.35019,141.01055 -70.29517,60.18183 -18.99909,-64.06586 -65.45709,-127.37762 -156.6654,-190.45282 -68.12683,-42.6611 -15.2061,-94.58107 60.69419,-53.35568 z"
       id="path2985-1-9"
       inkscape:connector-curvature="0"
       sodipodi:nodetypes="ccccc" />
    <path
       style="fill:#2d2213;fill-opacity:1;stroke:none"
       d="M -11.914742,173.88249 C 43.93131,101.24835 127.54149,58.546138 192.34341,33.733036 313.4475,-6.1213043 325.33144,102.53201 242.55856,111.46142 176.52404,121.70063 107.55579,159.252 32.822941,241.18147 c -51.408813,61.79294 -95.765824,2.38972 -44.737683,-67.29898 z"
       id="path2985-1-48"
       inkscape:connector-curvature="0"
       sodipodi:nodetypes="ccccc" />
    <path
       style="fill:#2d2213;fill-opacity:1;stroke:none"
       d="m 455.10112,256.19656 c -84.56386,35.26262 -178.3391,30.75192 -246.90183,20.06868 -124.892659,-25.62018 -81.19218,-125.8052 -4.93208,-92.40638 62.38751,23.9416 140.89757,25.64307 246.47008,-8.29631 75.3245,-28.06159 84.28304,45.5321 5.36383,80.63401 z"
       id="path2985-1-8"
       inkscape:connector-curvature="0"
       sodipodi:nodetypes="ccccc" />
    <path
       style="fill:#2d2213;fill-opacity:1;stroke:none"
       d="M -100.64547,570.06618 C -82.025133,480.35676 -25.373269,405.49215 22.143587,354.92411 113.7843,266.28693 171.82073,358.90734 101.20786,403.00843 46.231755,440.99565 0.51481114,504.84458 -31.055469,611.14958 c -19.349854,78.01805 -85.157061,43.87572 -69.590001,-41.0834 z"
       id="path2985-1-2"
       inkscape:connector-curvature="0"
       sodipodi:nodetypes="ccccc" />
    <path
       style="fill:#2d2213;fill-opacity:1;stroke:none"
       d="M 224.0123,913.54326 C 143.70997,869.42938 88.754514,793.31079 54.347646,733.0518 -3.5121189,619.44362 102.05722,591.12607 123.50732,671.56846 c 20.19152,63.7001 67.82309,126.13373 160.19276,187.49561 68.91118,41.38214 16.96871,94.28078 -59.68778,54.47919 z"
       id="path2985-1-45"
       inkscape:connector-curvature="0"
       sodipodi:nodetypes="ccccc" />
    <path
       style="fill:#2d2213;fill-opacity:1;stroke:none"
       d="m 683.67254,921.91085 c -84.56386,35.26262 -178.3391,30.75192 -246.90182,20.06868 -124.89266,-25.62018 -81.19218,-125.80519 -4.93208,-92.40637 62.3875,23.9416 140.89756,25.64307 246.47007,-8.29631 75.3245,-28.06159 84.28304,45.5321 5.36383,80.634 z"
       id="path2985-1-5"
       inkscape:connector-curvature="0"
       sodipodi:nodetypes="ccccc" />
  </g>
</svg>
