<?xml version="1.0" encoding="UTF-8" standalone="no"?>
<!-- Created with Inkscape (http://www.inkscape.org/) -->

<svg
   xmlns:dc="http://purl.org/dc/elements/1.1/"
   xmlns:cc="http://creativecommons.org/ns#"
   xmlns:rdf="http://www.w3.org/1999/02/22-rdf-syntax-ns#"
   xmlns:svg="http://www.w3.org/2000/svg"
   xmlns="http://www.w3.org/2000/svg"
   xmlns:sodipodi="http://sodipodi.sourceforge.net/DTD/sodipodi-0.dtd"
   xmlns:inkscape="http://www.inkscape.org/namespaces/inkscape"
   width="210mm"
   height="297mm"
   id="svg3763"
   version="1.1"
   inkscape:version="0.48.4 r9939"
   sodipodi:docname="Neues Dokument 3">
  <defs
     id="defs3765" />
  <sodipodi:namedview
     id="base"
     pagecolor="#ffffff"
     bordercolor="#666666"
     borderopacity="1.0"
     inkscape:pageopacity="0.0"
     inkscape:pageshadow="2"
     inkscape:zoom="1.4"
     inkscape:cx="308.23879"
     inkscape:cy="738.4695"
     inkscape:document-units="px"
     inkscape:current-layer="layer1"
     showgrid="false"
     inkscape:window-width="1920"
     inkscape:window-height="1018"
     inkscape:window-x="1272"
     inkscape:window-y="-8"
     inkscape:window-maximized="1" />
  <metadata
     id="metadata3768">
    <rdf:RDF>
      <cc:Work
         rdf:about="">
        <dc:format>image/svg+xml</dc:format>
        <dc:type
           rdf:resource="http://purl.org/dc/dcmitype/StillImage" />
        <dc:title></dc:title>
      </cc:Work>
    </rdf:RDF>
  </metadata>
  <g
     inkscape:label="Ebene 1"
     inkscape:groupmode="layer"
     id="layer1">
    <g
       id="g4321"
       transform="matrix(0.61949413,0,0,0.49468935,-10.581687,142.79312)">
      <path
         d="m 694.28574,268.07648 c 0,67.06315 -142.6293,121.42857 -318.57145,121.42857 -175.94214,0 -318.571437,-54.36542 -318.571437,-121.42857 0,-67.06315 142.629297,-121.42858 318.571437,-121.42858 175.94215,0 318.57145,54.36543 318.57145,121.42858 z"
         sodipodi:ry="121.42857"
         sodipodi:rx="318.57144"
         sodipodi:cy="268.07648"
         sodipodi:cx="375.71429"
         id="path3771"
         style="fill:#93905b;fill-opacity:1;stroke:none"
         sodipodi:type="arc" />
      <path
         d="m 694.28574,268.07648 c 0,67.06315 -142.6293,121.42857 -318.57145,121.42857 -175.94214,0 -318.571437,-54.36542 -318.571437,-121.42857 0,-67.06315 142.629297,-121.42858 318.571437,-121.42858 175.94215,0 318.57145,54.36543 318.57145,121.42858 z"
         sodipodi:ry="121.42857"
         sodipodi:rx="318.57144"
         sodipodi:cy="268.07648"
         sodipodi:cx="375.71429"
         id="path3771-7"
         style="fill:#6d6a3f;fill-opacity:1;stroke:none"
         sodipodi:type="arc"
         transform="matrix(0.99995046,0,0,1,0.02448636,64.999992)" />
      <rect
         y="264.50504"
         x="57.142857"
         height="69.051125"
         width="637.14288"
         id="rect4317"
         style="fill:#6d6a3f;fill-opacity:1;stroke:none" />
      <path
         sodipodi:type="arc"
         style="fill:#93905b;fill-opacity:1;stroke:none"
         id="path4319"
         sodipodi:cx="375.71429"
         sodipodi:cy="268.07648"
         sodipodi:rx="318.57144"
         sodipodi:ry="121.42857"
         d="m 694.28574,268.07648 c 0,67.06315 -142.6293,121.42857 -318.57145,121.42857 -175.94214,0 -318.571437,-54.36542 -318.571437,-121.42857 0,-67.06315 142.629297,-121.42858 318.571437,-121.42858 175.94215,0 318.57145,54.36543 318.57145,121.42858 z" />
    </g>
    <g
       id="g4365">
      <path
         d="m 694.28574,268.07648 c 0,67.06315 -142.6293,121.42857 -318.57145,121.42857 -175.94214,0 -318.571437,-54.36542 -318.571437,-121.42857 0,-67.06315 142.629297,-121.42858 318.571437,-121.42858 175.94215,0 318.57145,54.36543 318.57145,121.42858 z"
         sodipodi:ry="121.42857"
         sodipodi:rx="318.57144"
         sodipodi:cy="268.07648"
         sodipodi:cx="375.71429"
         id="path3771-7-9"
         style="fill:#6d6a3f;fill-opacity:1;stroke:none"
         sodipodi:type="arc"
         transform="matrix(0.59413345,0.17532942,-0.14001406,0.4744614,255.15915,94.879714)" />
      <path
         inkscape:connector-curvature="0"
         id="path4361"
         d="M 251.52798,205.85435 631.34534,309.90006 630.33519,341.21479 250.51783,235.14877 z"
         style="fill:#6d6a3f;stroke:none;stroke-width:1px;stroke-linecap:butt;stroke-linejoin:miter;stroke-opacity:1;fill-opacity:1" />
      <path
         d="m 694.28574,268.07648 c 0,67.06315 -142.6293,121.42857 -318.57145,121.42857 -175.94214,0 -318.571437,-54.36542 -318.571437,-121.42857 0,-67.06315 142.629297,-121.42858 318.571437,-121.42858 175.94215,0 318.57145,54.36543 318.57145,121.42858 z"
         sodipodi:ry="121.42857"
         sodipodi:rx="318.57144"
         sodipodi:cy="268.07648"
         sodipodi:cx="375.71429"
         id="path4363"
         style="fill:#93905b;fill-opacity:1;stroke:none"
         sodipodi:type="arc"
         transform="matrix(0.59416288,0.17533811,-0.14001406,0.4744614,256.24551,63.025281)" />
    </g>
  </g>
</svg>
